<?xml version="1.0" standalone="no"?><!DOCTYPE svg PUBLIC "-//W3C//DTD SVG 1.1//EN" "http://www.w3.org/Graphics/SVG/1.1/DTD/svg11.dtd"><svg t="1621133380000" class="icon" viewBox="0 0 1024 1024" version="1.1" xmlns="http://www.w3.org/2000/svg" p-id="4068" xmlns:xlink="http://www.w3.org/1999/xlink" width="200" height="200"><defs><style type="text/css"></style></defs><path d="M511.999488 33.382295c-264.342504 0-478.617705 214.274178-478.617705 478.616682 0 264.330224 214.275201 478.616682 478.617705 478.616682s478.617705-214.286458 478.617705-478.616682C990.617194 247.656473 776.341992 33.382295 511.999488 33.382295zM511.999488 930.789085c-231.275387 0-418.790108-187.499371-418.790108-418.789085 0-231.28869 187.514721-418.790108 418.790108-418.790108s418.790108 187.501418 418.790108 418.790108C930.789597 743.290737 743.274876 930.789085 511.999488 930.789085zM714.412524 396.08499c4.585435-24.362874 5.90243-33.56342 9.873882-50.683333-15.158235 1.972934-30.293957 2.629897-61.872163 2.629897L510.335592 348.031555l0-44.097334c0-23.691585 1.984191-60.556191 4.614088-75.032904l-51.325969 0c1.957585 23.034623 4.585435 60.558238 4.585435 73.718979l0 45.411259L345.137133 348.031555c-25.00551 0-42.125423-1.315972-62.516846-3.943822l0 46.067198c21.063735-1.970888 42.125423-3.28379 62.516846-3.28379l123.072013 0 0 123.086339L300.381813 509.957481c-22.375613 0-40.164768-0.670266-62.540382-3.301186l0 46.068222c34.909068-3.287883 48.082088-3.943822 62.540382-3.943822l167.827333 0 0 193.503109c0 34.236755-1.286296 50.683333-4.585435 74.389244l51.325969 0c-3.943822-23.034623-4.614088-34.894741-4.614088-74.389244L510.335592 548.779671l225.78228 0c-3.943822 61.870116-8.558933 98.736768-15.161305 123.742279-5.900384 22.376637-13.144368 27.635407-38.149878 27.635407-26.992771 0-51.357691-2.62785-90.852194-9.201569 7.91732 18.431791 9.873882 26.977421 12.503778 45.411259 30.964222 2.62785 48.725748 3.957125 69.789483 3.957125 53.312206 0 74.371848-11.18883 84.919065-46.082548 6.572696-22.37459 17.760502-102.680591 20.391423-150.063761 0.641613-11.18883 1.985214-24.347524 3.942799-36.865629-16.445554 1.973958-48.696072 2.644223-85.562724 2.644223L714.412524 396.08499zM655.812895 509.956458 510.335592 509.956458 510.335592 386.870118l163.238828 0L655.812895 509.956458zM666.328389 272.341688c39.495526 25.00551 58.599629 41.466414 99.410104 86.22071l28.308743-32.250518c-31.609928-30.936593-55.971779-51.341319-97.42489-81.620949L666.328389 272.341688z" p-id="4069"></path></svg>